<svg width="41" height="25" viewBox="0 0 41 25" fill="none" xmlns="http://www.w3.org/2000/svg">
<path d="M17.1685 10.503C17.8707 9.41063 18.2716 8.10742 18.2485 6.71019C18.1863 2.97125 15.0731 4.31852e-08 11.3316 4.31852e-08H0.885951C0.396696 4.31852e-08 0 0.396491 0 0.885494V23.8449C0 24.3339 0.396696 24.7304 0.885951 24.7304H12.5542C16.8849 24.7304 20.4724 21.2611 20.4901 16.9326C20.5009 14.2799 19.1848 11.928 17.1685 10.503ZM4.58258 4.58021H11.4208C12.6592 4.58021 13.6669 5.58723 13.6669 6.82508C13.6669 8.06284 12.6593 9.06995 11.4208 9.06995H4.58258V4.58021ZM12.656 20.1502H4.58258V13.6502H11.4208H12.6559C14.4488 13.6502 15.9076 15.1081 15.9076 16.9002C15.9076 18.6922 14.4489 20.1502 12.656 20.1502Z" fill="black"/>
<path d="M40.5671 15.3043C40.5671 9.95817 36.3513 5.60889 31.1693 5.60889C25.9873 5.60889 21.7715 9.95826 21.7715 15.3043C21.7715 20.6503 25.9874 24.9998 31.1693 24.9998C34.3137 24.9998 37.2354 23.3887 38.985 20.6901C39.2032 20.3536 39.4013 20.0021 39.5771 19.6397C39.7047 19.3767 39.5111 19.0706 39.2186 19.0699L34.5989 19.0584C34.4967 19.0581 34.3998 19.0998 34.3265 19.171C33.4542 20.0188 32.3847 20.4195 31.1693 20.4195C28.8735 20.4195 26.9489 18.7033 26.4699 16.4153H39.6475C40.1554 16.4153 40.5671 16.0038 40.5671 15.4961V15.3043ZM31.1693 10.1891C32.8508 10.1891 34.3328 11.1101 35.1943 12.5015H27.1444C28.0059 11.1101 29.488 10.1891 31.1693 10.1891Z" fill="black"/>
<path d="M35.0744 4.47081H26.739C26.3501 4.47081 26.0348 4.15569 26.0348 3.76698V1.67698C26.0348 1.28827 26.3501 0.973144 26.739 0.973144H35.0744C35.4633 0.973144 35.7786 1.28827 35.7786 1.67698V3.76698C35.7786 4.15578 35.4633 4.47081 35.0744 4.47081Z" fill="black"/>
</svg>
