<svg width="26" height="25" viewBox="0 0 26 25" fill="none" xmlns="http://www.w3.org/2000/svg">
<path d="M22.4299 0H3.90866C2.02176 0 0.492065 1.50824 0.492065 3.3688V21.6311C0.492065 23.4916 2.0217 24.9999 3.90866 24.9999H13.0432L13.0588 16.0663H10.7049C10.399 16.0663 10.1507 15.8224 10.1496 15.5208L10.1383 12.6411C10.1371 12.3378 10.3861 12.0914 10.6937 12.0914H13.0433V9.30886C13.0433 6.0798 15.0434 4.32156 17.9648 4.32156H20.362C20.6687 4.32156 20.9174 4.56673 20.9174 4.86921V7.29736C20.9174 7.59972 20.6689 7.84484 20.3623 7.84502L18.8912 7.84569C17.3024 7.84569 16.9948 8.59009 16.9948 9.68253V12.0914H20.4858C20.8184 12.0914 21.0765 12.3778 21.0373 12.7035L20.6912 15.5832C20.658 15.8588 20.421 16.0664 20.1396 16.0664H17.0103L16.9948 25H22.43C24.3169 25 25.8465 23.4918 25.8465 21.6313V3.3688C25.8465 1.50824 24.3168 0 22.4299 0Z" fill="black"/>
</svg>
