<svg width="26" height="25" viewBox="0 0 26 25" fill="none" xmlns="http://www.w3.org/2000/svg">
<path d="M18.4467 0H8.19874C4.03387 0 0.645508 3.34099 0.645508 7.44764V17.5524C0.645508 21.659 4.03387 25 8.19874 25H18.4467C22.6116 25 26 21.659 26 17.5524V7.44764C25.9999 3.34099 22.6116 0 18.4467 0ZM23.4493 17.5524C23.4493 20.2766 21.2096 22.485 18.4467 22.485H8.19874C5.43592 22.485 3.19617 20.2766 3.19617 17.5524V7.44764C3.19617 4.72339 5.43592 2.515 8.19874 2.515H18.4467C21.2096 2.515 23.4493 4.72339 23.4493 7.44764V17.5524Z" fill="black"/>
<path d="M13.3229 6.03418C9.70704 6.03418 6.76532 8.93477 6.76532 12.5C6.76532 16.0653 9.70704 18.9659 13.3229 18.9659C16.9387 18.9659 19.8805 16.0653 19.8805 12.5C19.8805 8.93473 16.9387 6.03418 13.3229 6.03418ZM13.3229 16.451C11.1099 16.451 9.31598 14.6821 9.31598 12.5001C9.31598 10.318 11.11 8.54918 13.3229 8.54918C15.5359 8.54918 17.3298 10.318 17.3298 12.5001C17.3298 14.6821 15.5358 16.451 13.3229 16.451Z" fill="black"/>
<path d="M19.8929 7.63183C20.7607 7.63183 21.4642 6.93818 21.4642 6.08252C21.4642 5.22686 20.7607 4.5332 19.8929 4.5332C19.0251 4.5332 18.3217 5.22686 18.3217 6.08252C18.3217 6.93818 19.0251 7.63183 19.8929 7.63183Z" fill="black"/>
</svg>
