<svg width="31" height="31" viewBox="0 0 31 31" fill="none" xmlns="http://www.w3.org/2000/svg">
<path d="M30.6916 0.0767795C30.5009 -0.0272053 30.2664 -0.0254527 30.0775 0.0813361L18.8742 6.41179C18.5835 6.576 18.4873 6.93422 18.6591 7.21194C18.8309 7.48961 19.2058 7.58162 19.4965 7.41746L27.5347 2.87549L12.5623 17.7204L5.1155 15.5433L14.8339 10.052C15.1245 9.88774 15.2208 9.52952 15.0489 9.2518C14.8772 8.97413 14.5022 8.88201 14.2116 9.04628L3.30021 15.2117C3.09173 15.3295 2.97564 15.5538 3.00431 15.7837C3.03298 16.0136 3.20092 16.2055 3.4325 16.2732L12.3258 18.8731L16.2493 25.6971C16.2534 25.7042 16.2576 25.7101 16.2619 25.7154C16.3274 25.8198 16.4255 25.905 16.5479 25.9542C16.6245 25.985 16.705 26 16.785 26C16.9417 26 17.0959 25.9424 17.2124 25.8336L21.7238 21.6204L30.2098 24.1012C30.2685 24.1183 30.3287 24.1268 30.3886 24.1268C30.5179 24.1268 30.6457 24.0876 30.7522 24.0123C30.9081 23.9021 31 23.7278 31 23.5426V0.584202C31 0.374421 30.8823 0.180706 30.6916 0.0767795ZM16.2826 19.2331C16.2118 19.3308 16.1738 19.4469 16.1738 19.5657V23.1393L13.4947 18.4795L25.3501 6.72514L16.2826 19.2331ZM17.3965 24.028V20.3554L20.3916 21.231L17.3965 24.028ZM29.7773 22.753L17.7643 19.2411L29.7773 2.66997V22.753Z" fill="white"/>
<path d="M9.81914 21.1809C9.57793 20.9397 9.18702 20.9397 8.94575 21.1809L3.18086 26.9458C2.93971 27.1869 2.93971 27.578 3.18086 27.8192C3.30153 27.9397 3.45956 28 3.61759 28C3.77562 28 3.93365 27.9397 4.05425 27.8191L9.81914 22.0542C10.0603 21.8131 10.0603 21.4221 9.81914 21.1809Z" fill="white"/>
<path d="M1.86378 29.1361C1.6821 28.9546 1.38768 28.9546 1.206 29.1362L0.136223 30.206C-0.0454075 30.3876 -0.0454075 30.6821 0.136223 30.8638C0.227061 30.9546 0.346085 31 0.46511 31C0.584135 31 0.703159 30.9546 0.793998 30.8638L1.86378 29.794C2.04541 29.6123 2.04541 29.3178 1.86378 29.1361Z" fill="white"/>
<path d="M8.85345 30.1465C8.7605 30.0535 8.6315 30 8.5 30C8.36795 30 8.2395 30.0535 8.1465 30.1465C8.0535 30.2395 8 30.368 8 30.5C8 30.6315 8.05345 30.7605 8.1465 30.8535C8.2395 30.9465 8.3685 31 8.5 31C8.6315 31 8.7605 30.9465 8.85345 30.8535C8.94645 30.7605 9 30.6315 9 30.5C9 30.368 8.9465 30.2395 8.85345 30.1465Z" fill="white"/>
<path d="M13.7891 25.2109C13.5081 24.9297 13.0524 24.9297 12.7709 25.2109L9.21087 28.7709C8.92971 29.0521 8.92971 29.508 9.21087 29.7891C9.35148 29.9297 9.53573 30 9.71997 30C9.90422 30 10.0885 29.9297 10.2291 29.7891L13.7891 26.2291C14.0703 25.9479 14.0703 25.492 13.7891 25.2109Z" fill="white"/>
<path d="M23.8316 25.2104C23.6071 24.9299 23.2432 24.9299 23.0186 25.2104L20.1684 28.7732C19.9439 29.0538 19.9439 29.5088 20.1684 29.7895C20.2806 29.9298 20.4278 30 20.5749 30C20.722 30 20.8691 29.9298 20.9814 29.7895L23.8316 26.2267C24.0561 25.9461 24.0561 25.4911 23.8316 25.2104Z" fill="white"/>
<path d="M16.8535 8.1465C16.7605 8.0535 16.6315 8 16.5 8C16.3685 8 16.2395 8.0535 16.1465 8.1465C16.0535 8.2395 16 8.3685 16 8.5005C16 8.632 16.0535 8.7605 16.1465 8.8535C16.2395 8.947 16.3685 9 16.5 9C16.6315 9 16.7605 8.947 16.8535 8.8535C16.9465 8.7605 17 8.632 17 8.5005C17 8.3685 16.9465 8.2395 16.8535 8.1465Z" fill="white"/>
</svg>
