<svg width="14" height="14" viewBox="0 0 14 14" fill="none" xmlns="http://www.w3.org/2000/svg">
<path d="M12.396 10.4495C11.5251 9.57866 10.5923 8.84556 10.5923 8.84556L9.23329 10.2046L3.79539 4.7667L5.15442 3.40763C5.15442 3.40763 4.42136 2.47488 3.55044 1.60398C2.67953 0.733101 1.74678 -9.07912e-08 1.74678 -9.07912e-08C1.74678 -9.07912e-08 0.118401 1.49804 0.00885534 2.68622C-0.137666 4.27659 1.54579 7.16809 4.18884 9.81117C6.83189 12.4542 9.7234 14.1376 11.3138 13.9911C12.5019 13.8816 14 12.2532 14 12.2532C14 12.2532 13.2669 11.3204 12.396 10.4495Z" fill="#FF562F"/>
</svg>
