<svg width="31" height="25" viewBox="0 0 31 25" fill="none" xmlns="http://www.w3.org/2000/svg">
<path d="M30.0272 2.90828C29.3512 3.20439 28.6495 3.43799 27.9294 3.60711C28.7228 2.86233 29.3194 1.93077 29.6559 0.89097C29.752 0.594127 29.4256 0.337439 29.1543 0.496376C28.1525 1.08332 27.0735 1.52364 25.9471 1.80524C25.8817 1.82158 25.8143 1.82986 25.7467 1.82986C25.5415 1.82986 25.342 1.75461 25.1851 1.61802C23.9867 0.574635 22.4453 8.27403e-08 20.845 8.27403e-08C20.1525 8.27403e-08 19.4534 0.106618 18.7669 0.316921C16.64 0.96857 14.9989 2.70164 14.484 4.83985C14.2909 5.64186 14.2386 6.44461 14.3285 7.22573C14.3388 7.3155 14.2958 7.37815 14.2693 7.40753C14.2228 7.45905 14.1569 7.48858 14.0884 7.48858C14.0808 7.48858 14.0729 7.48821 14.0651 7.48748C9.40943 7.0602 5.21113 4.84454 2.24356 1.24871C2.09223 1.0653 1.80203 1.08779 1.68142 1.29216C1.10029 2.277 0.793185 3.40341 0.793185 4.5496C0.793185 6.30619 1.50761 7.96158 2.74857 9.16837C2.22672 9.04614 1.72162 8.85365 1.25243 8.59623C1.02544 8.47165 0.746154 8.63176 0.742965 8.88823C0.710474 11.4978 2.25713 13.8197 4.57407 14.8653C4.52741 14.8664 4.48076 14.8669 4.43402 14.8669C4.06676 14.8669 3.69489 14.8319 3.32889 14.7628C3.07326 14.7146 2.85851 14.9541 2.93788 15.199C3.68992 17.5182 5.71148 19.2278 8.13064 19.6159C6.12288 20.9473 3.7848 21.6496 1.35132 21.6496L0.592676 21.6491C0.358934 21.6491 0.161244 21.7996 0.101677 22.0233C0.0430006 22.2436 0.151081 22.4759 0.350403 22.5904C3.09255 24.1668 6.22035 25 9.39705 25C12.1777 25 14.7787 24.4549 17.128 23.3799C19.2817 22.3944 21.1849 20.9857 22.7846 19.1928C24.2749 17.5227 25.4403 15.5947 26.2483 13.4625C27.0185 11.4301 27.4256 9.26136 27.4256 7.19085V7.09222C27.4255 6.75977 27.5777 6.44695 27.8433 6.23401C28.851 5.42577 29.7286 4.47434 30.4515 3.40619C30.6423 3.12415 30.3413 2.77066 30.0272 2.90828Z" fill="black"/>
</svg>
