<svg width="136" height="39" viewBox="0 0 136 39" fill="none" xmlns="http://www.w3.org/2000/svg">
<path fill-rule="evenodd" clip-rule="evenodd" d="M41.0006 6.87886C40.8715 6.87886 40.6779 7.00542 40.6133 7.13199L30.932 26.2427C27.7049 19.7881 24.6069 13.5866 21.5089 7.38511C21.3798 7.06871 21.0571 6.87886 20.7344 6.87886H12.7311C12.4084 6.87886 12.0857 7.00542 11.9566 7.32183C10.7996 9.60924 9.63142 11.8912 8.46029 14.1789C5.64635 19.6757 2.81534 25.2059 0.0808664 30.9254C-0.177302 31.4949 0.209951 32.1278 0.855372 32.1278H6.59962C6.92233 32.1278 7.24505 31.9379 7.37413 31.6215C7.51836 31.3387 7.66656 31.052 7.81578 30.7633C8.26753 29.8893 8.72865 28.9973 9.11677 28.1411L10.4722 25.2302L22.6706 25.1669C22.7352 25.1669 24.1551 28.0145 24.1551 28.0145C24.1673 28.0384 24.2185 28.1457 24.2985 28.313C24.6422 29.0324 25.5155 30.8601 26.0914 31.9379C26.1559 32.1277 26.3495 32.191 26.4786 32.191H36.6117C36.8652 32.1739 36.9617 32.1159 37.0635 31.9379L40.3552 25.4833C40.4197 25.3567 40.5488 25.2935 40.6779 25.2935H40.8715C41.0006 25.2935 41.1297 25.3567 41.1942 25.4833C41.7103 26.5587 44.226 31.4916 44.4859 32.0012L44.5504 32.0645C44.5504 32.1278 44.6795 32.191 44.744 32.191H51.4564C51.7791 32.191 51.9728 31.8746 51.8437 31.5582L44.6795 17.3201C44.6149 17.1936 44.6149 17.0037 44.744 16.8772L49.3265 7.70151C49.3911 7.63823 49.3911 7.57495 49.3911 7.57495C49.3911 7.19527 49.3265 6.94214 49.0038 6.87886H41.0006ZM17.0555 13.7764L20.1535 19.7248H13.312L16.1519 13.7764C16.2809 13.5866 16.41 13.5233 16.6037 13.5233C16.7973 13.5233 16.9909 13.5866 17.0555 13.7764Z" fill="black"/>
<path d="M30.8675 17.1303C30.803 17.1303 30.7384 17.1303 30.7384 17.067C30.0284 15.8014 24.2842 4.15781 24.2842 4.15781C24.2197 3.96797 24.4133 3.77812 24.5424 3.77812L30.932 3.71484C31.1902 3.71484 31.3838 3.90469 31.5775 4.09453C31.642 4.09453 34.5464 10.4226 34.5464 10.5491C34.5464 10.6757 34.5464 10.9288 34.4819 11.0554C33.9655 12.0046 32.0293 15.8647 31.3838 16.9405C31.2547 17.1936 31.1257 17.1303 30.8675 17.1303Z" fill="black"/>
<path d="M83.5245 29.7429H95.8745V30.6357H82.6151V6.56385H83.5245V29.7429Z" fill="#FF562F"/>
<path d="M113.118 23.4439H101.33L98.652 30.6357H97.6766L106.687 6.56385H107.778L116.789 30.6357H115.813L113.118 23.4439ZM101.661 22.5511H112.788L107.233 7.63849L101.661 22.5511Z" fill="#FF562F"/>
<path d="M120.674 30.6357V6.56385H127.006C129.596 6.56385 131.552 7.0929 132.875 8.15101C134.209 9.19809 134.876 10.7246 134.876 12.7306C134.876 14.1855 134.506 15.3924 133.768 16.3513C133.029 17.3102 131.988 17.9219 130.643 18.1865C132.164 18.3849 133.432 19.0462 134.446 20.1704C135.46 21.2836 135.967 22.5622 135.967 24.006C135.967 26.0561 135.3 27.6763 133.966 28.8667C132.644 30.046 130.797 30.6357 128.428 30.6357H120.674ZM121.567 18.7486V29.7429H128.527C130.566 29.7429 132.164 29.2414 133.321 28.2385C134.49 27.2244 135.074 25.8246 135.074 24.0391C135.074 22.5181 134.512 21.2671 133.388 20.2861C132.263 19.2942 130.759 18.7816 128.874 18.7486H121.567ZM121.567 17.8558H127.337C129.53 17.8558 131.183 17.437 132.296 16.5993C133.41 15.7506 133.966 14.439 133.966 12.6645C133.966 9.24769 131.712 7.51174 127.204 7.45663H121.567V17.8558Z" fill="#FF562F"/>
<path d="M67.3258 0H66.0905V39H67.3258V0Z" fill="#FF562F"/>
</svg>
