<svg width="2084" height="1140" viewBox="0 0 2084 1140" fill="none" xmlns="http://www.w3.org/2000/svg">
<path d="M1787.73 1135.29C1793.86 1130.79 1793.88 1129.8 1788.14 1112.46C1784.84 1102.49 1779.34 1090.85 1775.91 1086.6C1770.48 1079.87 1770.28 1077.7 1774.36 1069.8C1776.94 1064.8 1780.65 1060.52 1782.61 1060.28C1784.57 1060.04 1789.14 1059.64 1792.78 1059.4C1800.77 1058.87 1804.71 1046.27 1799.78 1037.02C1797.25 1032.27 1797.46 1028.81 1800.49 1025.14C1804.84 1019.88 1804.72 1019.37 1793.13 994.772C1789.69 987.466 1789.59 984.034 1792.7 980.264C1795.86 976.445 1795.58 974.324 1791.48 970.904C1788.56 968.471 1786.17 962.711 1786.17 958.104C1786.17 953.496 1784.97 949.726 1783.5 949.726C1780.44 949.726 1770.35 964.506 1771.22 967.719C1771.54 968.895 1767.88 971.961 1763.1 974.532C1758.31 977.104 1753.48 982.88 1752.36 987.37C1751.23 991.859 1749.02 995.533 1747.44 995.533C1745.86 995.533 1742.29 997.817 1739.5 1000.61C1732.13 1008.01 1721.16 1003.63 1714.1 990.47C1709.72 982.291 1705.31 978.864 1698.8 978.581C1693.78 978.363 1683.67 977.598 1676.35 976.882C1669.02 976.165 1662.28 976.799 1661.36 978.292C1658.9 982.286 1646.2 979.055 1636.1 971.866C1623.59 962.966 1620.4 961.132 1612.46 958.304C1605.8 955.929 1605.86 955.693 1613.65 953.62L1621.86 951.437L1612.78 941.591C1607.78 936.176 1603.69 930.241 1603.69 928.403C1603.69 926.565 1602.04 925.061 1600.03 925.061C1598.01 925.061 1592.09 921.019 1586.87 916.079C1577.98 907.673 1575.68 907.215 1551.05 908.93C1513.31 911.559 1508.95 912.317 1508.9 916.252C1508.87 918.19 1503.35 923.358 1496.61 927.736C1482.7 936.786 1481.28 942.563 1491.39 948.908C1499.24 953.83 1500.94 970.447 1494.27 977.139C1491.99 979.432 1489.98 991.988 1489.79 1005.15C1489.49 1026.16 1488.28 1030.26 1479.66 1039.47L1469.87 1049.92L1454.36 1044.32C1441.64 1039.73 1437.76 1039.53 1432.73 1043.22C1427.73 1046.9 1424.85 1046.82 1417.08 1042.78C1408.51 1038.33 1406.29 1038.58 1395.05 1045.23C1388.18 1049.3 1381.65 1056.28 1380.53 1060.74C1379.1 1066.47 1375.12 1069.49 1367 1071.02C1360.67 1072.21 1352.7 1076.29 1349.28 1080.08C1345.86 1083.88 1341.45 1085.97 1339.46 1084.74C1337.48 1083.51 1326.77 1082.84 1315.67 1083.24C1298.87 1083.85 1294.27 1082.68 1288.35 1076.29C1283.71 1071.29 1278.68 1069.27 1273.96 1070.51C1269.08 1071.79 1265.54 1070.21 1263.12 1065.69C1258.64 1057.27 1233.8 1056.44 1218.95 1064.22C1213.42 1067.12 1205.98 1069.49 1202.41 1069.51C1195.06 1069.53 1175.56 1050.15 1175.56 1042.82C1175.56 1037.58 1158.2 1027.24 1149.4 1027.24C1140.72 1027.24 1117.98 1013.73 1115.32 1006.98C1113.34 1001.97 1112.84 1002.37 1112.64 1009.12C1112.51 1013.68 1108.45 1022.13 1103.62 1027.89C1094.5 1038.78 1092.11 1054.79 1098.63 1061.34C1101.33 1064.06 1099.81 1067.75 1093.31 1074.28C1085.92 1081.7 1082.06 1083.02 1072.86 1081.26C1066.62 1080.08 1059.61 1077.61 1057.28 1075.78C1054.95 1073.94 1051.61 1073.34 1049.85 1074.43C1046.23 1076.67 1037.39 1067.43 1034 1057.85C1032.31 1053.1 1028.81 1051.74 1020.3 1052.57C1014.02 1053.17 1007.29 1051.77 1005.36 1049.44C1002.68 1046.2 997.347 1046.94 982.555 1052.58C971.939 1056.64 958.762 1059.78 953.272 1059.57C946.118 1059.3 943.819 1060.57 945.155 1064.07C947.24 1069.52 941.745 1072.33 923.2 1075.27C916.278 1076.37 909.526 1077.94 908.196 1078.76C906.865 1079.58 902.127 1076.36 897.668 1071.6C892.79 1066.39 884.711 1062.5 877.388 1061.83C867.042 1060.89 864.729 1059 861.966 1049.27C860.179 1042.97 856.576 1037.82 853.96 1037.82C851.009 1037.82 849.204 1033.78 849.204 1027.19C849.204 1018.51 846.949 1015.48 836.886 1010.66C828.107 1006.46 823.486 1005.85 820.799 1008.55C814.855 1014.52 803.787 1009.67 798.089 998.608C792.59 987.932 782.528 984.804 782.528 993.771C782.528 996.678 780.159 999.056 777.264 999.056C773.141 999.056 772 994.234 772 976.792C772 964.547 769.524 946.156 766.498 935.924C763.471 925.691 761.726 916.584 762.62 915.687C763.514 914.789 760.463 909.957 755.841 904.949C745.434 893.674 745.363 891.314 755.332 888.104C762.195 885.894 761.416 885.207 749.377 882.85C739.399 880.896 734.192 881.478 730.754 884.93C725.957 889.747 712.61 889.562 700.644 884.513C695.619 882.392 695.231 881.163 698.872 878.903C702.534 876.631 702.032 874.867 696.535 870.696C692.684 867.774 687.609 865.333 685.257 865.272C682.905 865.21 681.889 862.781 683 859.874C684.478 856.009 682.562 854.589 675.872 854.589C667.132 854.589 663.642 848.286 669.26 842.646C670.655 841.245 672.145 834.638 672.57 827.964C673.203 818.03 672.106 815.829 666.524 815.829C662.774 815.829 656.632 812.744 652.877 808.973C647.413 803.488 643.932 802.727 635.457 805.168C623.896 808.497 592.453 802.88 556.182 791.008C544.602 787.217 532.883 784.116 530.139 784.116C527.396 784.117 522.363 781.583 518.956 778.487C515.547 775.39 511.269 773.781 509.448 774.911C504.048 778.262 502.087 796.029 506.487 801.735C510.003 806.296 509.747 806.379 504.614 802.345C495.266 794.998 482.318 798.384 483.324 807.913C484.269 816.859 474.798 818.902 467.039 811.425C463.305 807.826 462.822 809.6 464.4 821.115C468.623 851.936 468.586 852.58 462.482 853.823C459.199 854.492 453.096 851.094 448.92 846.271C444.744 841.448 439.392 838.248 437.028 839.159C431.44 841.312 425.575 833.973 424.045 822.913C423.3 817.528 420.135 813.623 415.85 812.802C412.01 812.066 406.714 808.376 404.081 804.601C401.392 800.747 397.023 798.613 394.115 799.733C391.266 800.831 385.113 800.765 380.442 799.588C373.956 797.954 371.947 795.087 371.947 787.467C371.947 775.264 366.637 771.184 361.761 779.638C359.022 784.388 358.44 781.851 359.327 769.016C360.273 755.321 359.24 751.481 353.825 748.572C350.159 746.602 347.397 743.09 347.687 740.769C348.983 730.402 346.963 727.355 339.487 728.399C333.589 729.223 331.312 727.53 330.487 721.709C329.506 714.778 327.856 714.131 315.573 715.856C307.465 716.994 301.763 716.349 301.763 714.293C301.763 712.366 295.051 711.13 286.848 711.545C274.66 712.162 271.736 713.656 270.852 719.722C270.256 723.804 267.433 728.044 264.578 729.144C258.844 731.353 254.37 723.366 257.197 715.968C260.604 707.053 254.626 703.477 239.68 705.49C228.325 707.019 224.667 709.21 223.117 715.413C221.073 723.589 207.013 730.302 207.013 723.102C207.013 720.914 204.507 722.717 201.445 727.107C197.199 733.193 196.829 736.242 199.885 739.939C202.99 743.695 202.465 745.596 197.557 748.368C191.604 751.731 191.717 752.412 199.418 759.641C205.012 764.893 206.977 769.72 205.607 774.845C204.503 778.976 203.578 784.337 203.552 786.76C203.526 789.182 201.135 791.164 198.24 791.164C191.898 791.164 191.198 803.739 197.328 807.543C207.106 813.611 183.72 814.388 169.69 808.461C156.988 803.096 154 802.943 145.758 807.236C140.578 809.935 135.266 811.991 133.952 811.807C122.735 810.231 119.218 812.923 119.946 822.526C120.373 828.147 118.717 835.171 116.266 838.136C112.57 842.608 112.967 844.148 118.594 847.172C122.325 849.177 126.375 849.816 127.594 848.592C128.813 847.369 129.81 848.217 129.81 850.478C129.81 852.911 124.195 854.589 116.052 854.589C101.14 854.589 102.044 853.106 96.2018 887.182C94.4899 897.168 92.2613 900.396 87.078 900.396C72.4619 900.396 66.6438 893.898 66.6438 877.576C66.6438 869.038 64.9621 861.008 62.9066 859.733C60.8511 858.457 59.4393 853.211 59.7692 848.073C61.3356 823.681 59.6295 817.619 49.5831 811.881C41.3392 807.173 39.2488 803.175 37.6681 789.094C36.6137 779.701 33.9833 771.424 31.8228 770.701C26.5486 768.936 17.5145 750.946 17.5145 742.209C17.5145 738.346 14.526 733.085 10.8735 730.516C5.19558 726.523 3.92547 719.571 2.1162 682.583L0 639.321L8.4739 648.502C15.9433 656.595 17.8134 657.14 24.2496 653.104C30.1164 649.425 32.9308 649.39 38.5699 652.926C44.8711 656.878 45.5884 656.445 45.5884 648.697C45.5884 643.95 47.1676 639.086 49.0976 637.888C51.0277 636.69 52.6192 636.993 52.6343 638.561C52.6617 641.415 69.0715 650.221 74.3619 650.221C79.6613 650.221 77.1729 640.001 71.0304 636.538C65.6034 633.479 65.533 632.827 70.4252 630.934C77.3281 628.262 94.7177 634.609 94.7177 639.8C94.7177 644.943 109.647 640.209 113.316 633.903C114.859 631.25 118.412 629.079 121.211 629.079C124.011 629.079 126.301 627.678 126.301 625.966C126.301 624.254 129.459 622.025 133.319 621.011C141.985 618.735 142.884 600.59 135.075 585.556C132.204 580.03 130.767 571.86 131.882 567.402C133.581 560.605 132.23 558.927 123.508 557.004C114.543 555.026 113.223 553.258 113.934 544.181C114.388 538.391 118.145 530.485 122.285 526.613C131.269 518.208 131.425 516.684 124.341 506.528C119.176 499.124 119.365 498.5 127.752 495.298C133.016 493.289 137.602 488.029 139.014 482.383C141.015 474.375 139.301 470.931 128.258 460.77L115.122 448.682L124.877 438.458C136.417 426.364 138.907 425.884 141.355 435.281C142.7 440.449 146.141 442.329 154.253 442.329C161.446 442.329 164.477 440.964 162.917 438.429C159.551 432.961 168.258 406.894 176.6 397.463C180.427 393.136 186.467 388.669 190.022 387.536C196.755 385.39 199.128 370.389 193.306 366.776C191.557 365.691 190.905 361.812 191.857 358.157C192.809 354.501 191.871 350.445 189.773 349.143C184.076 345.608 185.169 336.621 191.297 336.621C194.233 336.621 198.435 332.657 200.633 327.812C202.832 322.967 206.746 319.003 209.331 319.003C211.916 319.003 214.032 317.473 214.032 315.603C214.032 313.733 217.43 310.378 221.582 308.146C228.014 304.69 228.81 304.933 226.956 309.784C224.054 317.379 230.004 317.06 235.765 309.313C238.288 305.922 247.927 299.563 257.186 295.184C275.481 286.53 284.17 288.131 291.278 301.466C297.573 313.276 302.012 309.475 299.601 294.338C298.042 284.545 298.628 280.243 301.521 280.243C303.812 280.243 304.606 278.488 303.285 276.342C301.718 273.797 303.171 273.164 307.464 274.521C321.416 278.93 352.514 283.767 366.912 283.767C381.965 283.767 395.099 275.928 391.054 269.357C387.311 263.276 393.285 252.509 401.065 251.313C405.316 250.66 408.4 248.181 407.917 245.805C407.435 243.428 410.198 241.484 414.058 241.484C418.393 241.484 421.087 239.126 421.104 235.318C421.13 229.377 435.249 220.342 444.505 220.342C446.971 220.342 451.767 215.982 455.163 210.652C463.676 197.291 470.449 192.406 480.734 192.212C493.025 191.979 497.039 188.529 499.778 175.847C501.784 166.559 504.142 164.503 514.782 162.77C524.06 161.258 529.928 162.517 536.926 167.52C542.162 171.264 547.228 173.543 548.183 172.585C549.137 171.626 552.016 173.379 554.579 176.481C557.63 180.172 558 182.94 555.649 184.494C550.934 187.611 547.182 202.724 551.124 202.724C552.805 202.724 556.076 206.28 558.392 210.625C563.568 220.336 562.652 293.919 557.274 300.426C555.251 302.873 547.69 306.653 540.471 308.824C529.662 312.076 525.84 311.78 518.795 307.145C505.965 298.704 494.581 263.021 494.695 231.601C494.731 221.543 488.743 224.641 483.443 237.422C478.416 249.546 478.182 250.484 477.663 260.626C477.376 266.233 474.493 270.029 469.329 271.602C455.743 275.739 445.641 287.65 445.641 299.533C445.641 305.59 443.746 312.449 441.43 314.775C438.659 317.557 438.519 319.003 441.021 319.003C443.112 319.003 445.649 322.174 446.658 326.05C448.707 333.918 457.739 335.464 462.103 328.693C463.665 326.27 464.942 320.359 464.942 315.556C464.942 310.106 467.214 306.374 470.985 305.627C475.811 304.671 476.939 306.83 476.583 316.339C475.686 340.279 492.191 352.151 499.021 332.478C502.695 321.896 502.836 321.846 522.297 324.287C534.132 325.772 543.568 329.046 546.152 332.563C548.545 335.82 548.981 338.903 547.142 339.565C541.634 341.546 547.366 347.192 554.885 347.192C563.333 347.192 570.733 340.429 572.509 331.086C573.232 327.281 577.23 323.797 581.59 323.171C585.875 322.557 592.411 318.186 596.116 313.456C600.376 308.019 604.917 305.654 608.468 307.022C615.048 309.557 615.31 311.785 610.517 324.442C607.817 331.574 605.854 332.95 602.439 330.104C594.529 323.513 583.344 329.257 581.661 340.776C579.646 354.557 587.446 362.692 599.724 359.617C621.653 354.124 650.128 356.608 658.858 364.774C663.231 368.864 667.248 370.332 668.5 368.297C669.681 366.379 673.957 364.81 678.002 364.81C685.112 364.81 685.147 365.043 679.065 371.791C673.793 377.64 673.52 379.676 677.384 384.35C680.196 387.752 684.983 389.174 689.658 387.996C694.504 386.775 699.414 388.387 703.014 392.381C706.557 396.312 712.818 398.411 719.596 397.94C729.391 397.259 730.278 398.01 728.426 405.422C726.68 412.408 727.59 413.53 734.418 412.799C746.012 411.558 750.945 407.656 750.945 399.727C750.945 387.096 760.689 388.226 773.641 402.358C785.923 415.758 791.856 427.09 788.405 430.555C787.424 431.54 789.698 435.434 793.458 439.209C797.218 442.984 801.231 450.78 802.377 456.533C803.523 462.286 806.439 466.994 808.856 466.994C816.082 466.994 821.876 457.289 819.375 449.376C818.084 445.293 818.932 439.703 821.27 436.874C824.253 433.264 824.339 431.758 821.559 431.758C815.365 431.758 816.946 421.398 824.639 411.578C828.499 406.65 831.657 398.869 831.657 394.285C831.657 388.372 833.645 385.951 838.498 385.951C842.261 385.951 852.862 378.816 862.056 370.095C871.251 361.374 879.124 354.239 879.552 354.239C879.98 354.239 884.381 355.785 889.331 357.675C901.488 362.316 901.036 374.182 888.115 389.608C880.7 398.46 878.382 404.308 879.665 410.92C880.762 416.569 879.31 422.167 875.847 425.644C872.773 428.73 870.259 432.656 870.259 434.368C870.259 436.08 867.068 444.112 863.169 452.217C858.693 461.518 856.889 470.197 858.277 475.749C859.866 482.105 858.856 485.17 854.638 486.795C851.427 488.033 849.65 491.269 850.69 493.988C851.854 497.036 849.24 500.206 843.873 502.255C839.084 504.083 835.167 507.088 835.167 508.932C835.167 510.776 830.06 514.843 823.818 517.969C813.258 523.259 812.159 523.23 808.026 517.554C805.583 514.199 803.583 512.744 803.583 514.32C803.583 515.897 801.215 515.213 798.32 512.801C795.132 510.145 793.056 509.861 793.056 512.081C793.056 521.058 798.277 527.518 809.252 532.123C819.924 536.6 822.641 536.398 836.893 530.068C857.518 520.907 871.838 507.32 872.722 496.073C873.653 484.224 877.437 480.868 887.027 483.386C895.999 485.742 901.277 500.683 895.269 506.716C890.374 511.631 890.037 526.895 894.824 526.895C896.754 526.895 901.647 530.223 905.698 534.29L913.063 541.685L910.451 533.423C909.015 528.878 905.327 523.315 902.255 521.06C897.178 517.333 897.225 516.347 902.766 510.199C906.118 506.48 908.861 500.006 908.861 495.813C908.861 486.587 895.685 470.538 888.05 470.463C885.02 470.434 880.506 469.113 878.019 467.528C872.362 463.924 877.742 447.856 888.448 436.379C893.613 430.843 895.248 425.283 894.247 416.672C892.858 404.725 897.563 396.522 905.804 396.522C908.146 396.522 913.345 393.747 917.357 390.356C924.464 384.349 924.511 384.372 919.199 391.237C916.2 395.112 913.32 403.417 912.798 409.692C912.024 419 913.513 421.861 920.883 425.233C925.851 427.506 929.916 430.697 929.916 432.323C929.916 433.95 932.235 435.281 935.07 435.281C941.684 435.281 938.059 424.695 929.27 418.345C921.56 412.774 920.87 403.569 928.161 403.569C931.057 403.569 933.425 405.155 933.425 407.093C933.425 409.031 935.978 410.616 939.098 410.616C942.975 410.616 944.211 408.463 943.001 403.818C941.706 398.846 942.946 397.149 947.612 397.502C951.123 397.768 953.221 399.241 952.276 400.777C951.331 402.313 952.989 403.569 955.961 403.569C958.934 403.569 962.36 407.547 963.575 412.409C964.914 417.766 969.088 422.081 974.17 423.362C984.387 425.937 985.019 430.289 975.536 432.779C970.743 434.037 968.518 437.585 968.518 443.969C968.518 449.868 969.941 452.432 972.377 450.92C974.668 449.499 974.365 451.921 971.632 456.879C969.099 461.473 967.528 466.818 968.141 468.756C969.473 472.966 971.384 481.81 971.758 485.493C972.152 489.371 982.555 488.723 982.555 484.82C982.555 482.996 981.036 480.562 979.179 479.41C977.019 478.069 977.019 474.108 979.179 468.401C981.036 463.499 982.555 454.73 982.555 448.915C982.555 443.1 984.28 435.105 986.389 431.148C989.162 425.945 989.162 422.888 986.389 420.104C984.28 417.987 982.555 413.971 982.555 411.181C982.555 408.391 980.204 404.347 977.331 402.196C973.582 399.387 972.708 394.638 974.234 385.36L976.361 372.437L1000.51 373.028C1017.54 373.444 1024.66 374.954 1024.66 378.147C1024.66 381.478 1026.4 381.743 1031.23 379.15C1036.19 376.48 1037.6 372.218 1037 361.589C1036.47 352.149 1037.84 346.926 1041.19 345.636C1043.93 344.581 1045.29 342.295 1044.22 340.556C1041.44 336.037 1064.05 326.05 1077.07 326.05C1083.59 326.05 1088.87 323.905 1090.07 320.765C1092.32 314.889 1101.87 313.463 1101.87 319.003C1101.87 320.941 1104.71 322.526 1108.19 322.526C1116.03 322.526 1133.39 314.65 1133.42 311.075C1133.44 309.621 1137.13 308.432 1141.62 308.432C1148.61 308.432 1149.57 306.982 1148.3 298.313C1146.42 285.463 1163.34 267.397 1171.15 273.908C1175.02 277.127 1175.05 278.407 1171.34 280.813C1167.7 283.178 1167.84 284.459 1172.05 287.237C1174.95 289.145 1179.29 290.731 1181.7 290.76C1184.12 290.79 1186.09 293.985 1186.09 297.861C1186.09 306.1 1192.41 307.303 1195.35 299.623C1198.48 291.439 1213.99 293.366 1227.35 303.599C1236.64 310.713 1238.34 313.587 1234.7 315.998C1230.84 318.55 1231.1 320.02 1236.1 323.863C1244.92 330.651 1243.8 335.434 1229.99 350.07C1223.25 357.208 1217.72 364.692 1217.7 366.701C1217.69 368.711 1210.57 377.908 1201.88 387.14C1193.2 396.372 1186.14 405.828 1186.2 408.152C1186.26 410.522 1188.36 409.67 1190.98 406.212C1193.54 402.82 1198.91 400.046 1202.91 400.046C1207.18 400.046 1211.13 397.036 1212.49 392.744C1213.85 388.438 1216.79 386.208 1219.64 387.308C1222.31 388.335 1226.79 386.864 1229.6 384.04C1236.25 377.366 1247.95 377.45 1250.53 384.189C1251.64 387.096 1254.27 389.475 1256.37 389.475C1258.48 389.475 1259.33 388.063 1258.27 386.337C1255.43 381.731 1272.11 371.857 1282.72 371.857C1287.75 371.857 1294.24 374.235 1297.13 377.142C1303.91 383.952 1320.47 383.897 1333.71 377.021C1342.59 372.411 1343.57 370.584 1340.39 364.616C1335.23 354.937 1338.98 350.587 1350.48 352.896C1356.93 354.192 1361.73 352.986 1364.78 349.299C1368.91 344.298 1370.38 344.48 1379.72 351.157C1385.7 355.433 1389.28 360.625 1388.2 363.447C1387.13 366.246 1388.54 368.333 1391.49 368.333C1397.39 368.333 1398.39 373.884 1393.08 377.178C1387.95 380.362 1392.91 386.793 1398.75 384.54C1401.95 383.31 1403.66 385.103 1403.66 389.673C1403.66 394.023 1407.34 398.207 1413.31 400.666C1426.99 406.292 1437.27 405.893 1435.74 399.796C1435.05 397.026 1433.94 389.572 1433.28 383.232C1432.28 373.55 1432.98 372.206 1437.67 374.843C1445.74 379.372 1456.3 375.614 1456.3 368.216C1456.3 360.117 1462.88 357.845 1473.07 362.43C1483.16 366.975 1493.02 359.688 1484.35 354.092C1480 351.285 1480.4 350.359 1486.77 348.604C1493.63 346.716 1494 345.505 1490.35 337.152C1488.11 332.015 1484.83 326.783 1483.06 325.525C1481.29 324.267 1481.11 320.303 1482.67 316.716C1484.22 313.129 1485.32 309.262 1485.12 308.123C1484.92 306.984 1491.38 302.659 1499.48 298.511C1511.73 292.237 1514.39 291.845 1515.34 296.178C1516.72 302.506 1522.84 303.121 1523.33 296.98C1523.52 294.558 1524.77 296.54 1526.12 301.385C1529.9 315.043 1535.14 311.796 1536.35 295.051C1537.24 282.637 1539.02 279.304 1546.23 276.552C1559.13 271.626 1562.3 272.4 1559.93 279.898C1557.98 286.09 1558.93 286.346 1572.57 283.271C1580.68 281.44 1589.67 280.848 1592.54 281.954C1598.3 284.172 1614.22 271.017 1614.22 264.043C1614.22 261.623 1618.31 254.764 1623.3 248.801C1630.86 239.788 1634.93 237.96 1647.49 237.96C1657.68 237.96 1663.25 239.68 1664.62 243.246C1668.96 254.624 1696.23 245.919 1694.72 233.635C1693.53 224.001 1699.8 212.6 1708.01 209.467C1712.75 207.659 1718.43 201.353 1720.65 195.453C1723.52 187.825 1726.47 185.194 1730.86 186.347C1734.26 187.239 1738 186.394 1739.19 184.469C1740.37 182.544 1744.26 181.736 1747.84 182.674C1751.41 183.612 1756.16 182.164 1758.4 179.457C1764.2 172.431 1756.34 163.965 1744 163.965C1730.18 163.965 1728.72 155.539 1740.38 143.004C1745.88 137.09 1749.66 132.253 1748.78 132.253C1747.89 132.253 1750.02 127.165 1753.51 120.947C1763.13 103.796 1776.7 92.9516 1808.98 76.6404C1814.77 73.7141 1822.17 69.0182 1825.43 66.2051C1828.68 63.392 1832.86 62.0294 1834.71 63.1771C1836.56 64.3248 1839.04 62.73 1840.22 59.6331C1841.53 56.2119 1844.58 54.8528 1848 56.1697C1852.17 57.7761 1853.05 56.8301 1851.4 52.515C1849.44 47.3769 1851.66 46.9191 1870.31 48.6173C1887.03 50.1399 1891.45 49.508 1891.45 45.5904C1891.45 42.6581 1887.87 40.6391 1882.67 40.6391C1872.49 40.6391 1871.82 38.7057 1879.37 31.1241C1882.37 28.1057 1884.03 23.5433 1883.05 20.9854C1882.03 18.3115 1884.56 15.3128 1888.99 13.9303C1893.24 12.6078 1901.05 8.45464 1906.36 4.70099C1916.51 -2.47559 1916.13 -2.7695 1917.42 13.3313C1917.61 15.7538 1919.35 18.925 1921.28 20.3785C1923.48 22.039 1922.87 24.2595 1919.62 26.3532C1916.78 28.1858 1915.3 30.5283 1916.33 31.5589C1918.19 33.431 1931.23 36.3592 1939.91 36.8537C1942.5 37.0013 1943.39 38.9144 1941.96 41.2379C1940.26 44.0098 1941.34 44.6232 1945.26 43.1103C1949.08 41.6412 1951.1 42.6562 1951.1 46.0351C1951.1 48.8812 1949.52 51.2099 1947.59 51.2099C1945.66 51.2099 1944.41 52.3991 1944.81 53.8526C1945.21 55.3061 1940.85 61.4127 1935.12 67.4228C1926.7 76.2555 1923.55 77.6214 1918.69 74.5478C1913.98 71.56 1911.57 72.2385 1907.44 77.7147C1904.56 81.5478 1902.15 88.2517 1902.09 92.6121C1902 98.638 1899.92 100.54 1893.41 100.54C1888.7 100.54 1883.87 98.9546 1882.67 97.0166C1879.45 91.7719 1874.94 92.7474 1872.46 99.2261C1869.75 106.324 1880.35 115.049 1888.65 112.545C1892.96 111.244 1896.65 114.735 1901.91 125.071C1909.87 140.754 1907.88 149.975 1895.01 156.891C1890.68 159.214 1889 162.638 1890.39 166.275C1892.4 171.548 1892.91 171.544 1896.78 166.221C1899.1 163.042 1904.37 160.441 1908.5 160.441C1912.63 160.441 1916.01 158.749 1916.01 156.68C1916.01 152.295 1930.64 156.045 1934 161.292C1935.38 163.446 1937.05 163.312 1938.52 160.93C1941.5 156.085 1966.1 156.79 1969.37 161.814C1972.27 166.28 1959.02 181.583 1952.25 181.583C1946.46 181.583 1946.1 187.543 1951.77 189.441C1954.37 190.311 1956.3 200.551 1956.89 216.543C1957.41 230.68 1959.52 247.392 1961.59 253.681C1963.65 259.971 1965.96 268.323 1966.71 272.241C1967.46 276.159 1969.66 285.112 1971.59 292.137C1974.92 304.242 1974.66 304.909 1966.7 304.909C1956.25 304.909 1947.78 319.97 1947 339.962C1946.53 352.124 1945.7 353.525 1941.19 349.788C1936.62 345.999 1936.19 347.387 1937.92 360.405C1939.37 371.306 1938.68 375.38 1935.39 375.38C1927.84 375.38 1926.24 390.326 1932.8 399.452C1936.11 404.057 1942.77 415.177 1947.59 424.164C1956.33 440.442 1968.65 448.126 1968.65 437.302C1968.65 434.253 1971.2 431.758 1974.32 431.758C1978.19 431.758 1979.44 433.912 1978.23 438.524C1976.92 443.564 1978.83 445.959 1985.72 447.911C1990.81 449.353 1996.32 450.217 1997.96 449.832C1999.61 449.447 2003.95 450.087 2007.62 451.253C2015.49 453.764 2016.6 463.47 2009.01 463.47C2006.11 463.47 2003.74 466.428 2003.74 470.042C2003.74 479.504 2017.1 495.183 2025.16 495.183C2033.39 495.183 2037.86 504.617 2032.28 510.218C2030.1 512.414 2028.31 520.013 2028.31 527.106C2028.31 536.604 2030.53 541.675 2036.72 546.349C2044.73 552.384 2044.91 553.363 2040.39 566.223C2036.61 576.988 2036.55 579.749 2040.09 579.749C2045.92 579.749 2059.89 612.093 2059.89 625.589C2059.89 639.444 2050.84 639.593 2038.02 625.949C2032.76 620.352 2021.73 612.256 2013.52 607.958C1984.26 592.645 1930.05 542.384 1930.05 530.572C1930.05 521.18 1922.72 505.753 1918.26 505.753C1916.04 505.753 1916.27 504.088 1918.82 501.525C1925.05 495.272 1924.25 458.3 1917.77 452.899C1914.87 450.487 1912.5 445.629 1912.5 442.105C1912.5 438.581 1910.85 434.67 1908.82 433.414C1906.26 431.822 1906.26 429.775 1908.84 426.659C1911.48 423.469 1910.8 417.474 1906.47 405.743C1901.41 392.057 1901.15 388.085 1904.9 382.063C1910 373.851 1907.87 369.721 1890.28 353.756C1883.94 348.004 1880.04 340.958 1880.04 335.258C1880.04 324.631 1874.98 323.325 1868.26 332.216C1861.75 340.822 1862.26 346.29 1870.39 355.051C1874.37 359.334 1877.41 367.485 1877.41 373.843C1877.41 380.018 1878.37 389.911 1879.55 395.827C1881.28 404.489 1880.58 406.419 1875.96 405.738C1872.8 405.273 1867.8 401.423 1864.84 397.184C1858.63 388.275 1852.85 387.107 1852.85 394.76C1852.85 397.667 1850.33 400.046 1847.25 400.046C1844.18 400.046 1840.83 403.217 1839.83 407.093C1838.82 410.969 1836.72 414.14 1835.17 414.14C1830.19 414.14 1827.42 435.275 1831.71 440.468C1833.93 443.162 1836.66 454.592 1837.77 465.87C1838.87 477.147 1842.04 490.876 1844.81 496.38C1849.65 505.994 1850.11 506.145 1856.61 500.238C1860.57 496.637 1863.37 495.786 1863.37 498.183C1863.37 500.434 1859.43 505.723 1854.6 509.936C1849.77 514.148 1845.83 519.794 1845.83 522.482C1845.83 525.695 1843.52 526.635 1839.1 525.227C1835.41 524.049 1831.46 524.586 1830.33 526.421C1829.2 528.256 1825.12 528.928 1821.26 527.915C1816.38 526.634 1814.24 527.809 1814.24 531.769C1814.24 534.902 1813.06 537.278 1811.61 537.048C1801.18 535.394 1796.32 538.48 1794.43 547.957C1792.28 558.751 1787.47 564.281 1774.39 571.008C1770.25 573.135 1767.1 577.613 1767.38 580.959C1767.73 585.167 1766.64 586.007 1763.85 583.682C1761.11 581.398 1755.64 584.162 1746.8 592.3C1727.11 610.415 1721.87 620.121 1724.41 633.72C1725.61 640.166 1725.41 646.634 1723.95 648.094C1722.5 649.554 1721.02 658.641 1720.68 668.289C1720.33 677.936 1718.36 687.872 1716.29 690.368C1714.23 692.865 1712.7 705.252 1712.89 717.895C1713.07 730.539 1711.48 744.164 1709.34 748.174C1707.21 752.184 1705.46 759.44 1705.46 764.298C1705.46 769.156 1703.88 774.11 1701.95 775.308C1700.02 776.506 1698.44 780.563 1698.44 784.325C1698.44 789.545 1700.88 791.164 1708.76 791.164C1714.44 791.164 1720.05 789.59 1721.23 787.667C1722.42 785.735 1727.18 788.495 1731.86 793.833C1738.65 801.58 1740.35 802.274 1740.44 797.331C1740.57 789.839 1747.57 788.975 1747.57 796.45C1747.57 799.357 1749.94 801.735 1752.83 801.735C1755.73 801.735 1758.1 799.357 1758.1 796.45C1758.1 793.543 1760.46 791.164 1763.36 791.164C1769.35 791.164 1770.5 782.174 1764.94 778.726C1758.13 774.495 1769.25 765.752 1778.95 767.719C1800.22 772.032 1811.07 775.481 1810.97 777.892C1810.9 779.313 1816.49 786.137 1823.38 793.055C1831.26 800.968 1835.13 807.661 1833.82 811.1C1831.05 818.352 1838.34 842.189 1845.79 850.217C1849.05 853.733 1855.95 865.054 1861.11 875.375C1870.47 894.081 1870.49 894.338 1868.92 958.05C1867.26 1025.57 1866.32 1037.23 1861.93 1044.36C1860.43 1046.79 1860.13 1052.49 1861.26 1057.01C1863.92 1067.64 1851.41 1096.15 1839.3 1107.08C1831.58 1114.05 1827.56 1115.11 1815.2 1113.42L1800.35 1111.4L1798.08 1125.7C1796.27 1137.06 1794.31 1140 1788.56 1140C1781.66 1140 1781.62 1139.78 1787.73 1135.29ZM1956.68 960.022C1951.38 954.057 1947.92 946.922 1948.97 944.166C1950.02 941.41 1949.47 939.155 1947.74 939.155C1944.16 939.155 1933.56 919.21 1933.56 912.474C1933.56 910.023 1928.22 904.703 1921.69 900.652C1915.16 896.601 1907.75 888.147 1905.23 881.866C1902.7 875.584 1895.27 863.31 1888.72 854.589C1882.16 845.868 1874.65 833.58 1872.02 827.281C1868.83 819.644 1864.84 815.829 1860.04 815.829C1852.84 815.829 1838.81 804.471 1838.81 798.643C1838.81 796.942 1836.44 793.577 1833.54 791.164C1830.65 788.752 1828.28 784.322 1828.28 781.32C1828.28 778.319 1825.58 772.867 1822.28 769.204C1817.61 764.027 1817.27 761.931 1820.73 759.784C1826.99 755.9 1821.92 737.823 1813.99 735.741C1810.35 734.786 1808.5 732.015 1809.6 729.154C1812.52 721.496 1817.58 723.301 1821.39 733.366C1823.3 738.398 1828 743.34 1831.83 744.348C1835.67 745.355 1838.81 748.423 1838.81 751.165C1838.81 753.906 1841.57 757.139 1844.95 758.348C1855.7 762.197 1860.18 767.157 1856.7 771.371C1852.53 776.426 1861.83 787.924 1874.78 793.733C1880.09 796.113 1884.43 799.68 1884.43 801.659C1884.43 803.639 1886.16 805.259 1888.28 805.259C1890.39 805.259 1901.84 813.818 1913.72 824.279C1925.59 834.741 1940.84 845.711 1947.59 848.657L1959.88 854.014L1943.1 854.302C1922.67 854.651 1920.53 858.597 1928.3 881.569C1936.11 904.654 1946.93 921.513 1954.02 921.649C1957.24 921.711 1962.95 924.097 1966.71 926.951C1970.47 929.806 1976.13 931.318 1979.28 930.312C1986.89 927.888 1995.9 945.879 1989.18 950.055C1986.76 951.556 1983.35 951.898 1981.6 950.815C1979.86 949.732 1980.57 947.482 1983.19 945.816C1986.69 943.587 1986.79 942.772 1983.56 942.733C1975.99 942.64 1965.66 955.444 1969.01 960.762C1977.69 974.513 1969.08 973.997 1956.68 960.022ZM1940.85 948.258C1940.7 944.543 1941.53 942.462 1942.7 943.633C1943.86 944.804 1943.99 947.843 1942.97 950.387C1941.85 953.197 1941.02 952.363 1940.85 948.258ZM2038.83 933.19C2038.83 923.169 2040.56 918.102 2044.5 916.586C2049.33 914.725 2049.8 916.352 2047.73 927.661C2044.18 947.076 2038.83 950.397 2038.83 933.19ZM2051.8 908.716C2046.86 903.756 2049.16 873.04 2054.63 870.933C2057.52 869.817 2059.89 866.476 2059.89 863.508C2059.89 860.541 2061.47 858.113 2063.4 858.113C2068.19 858.113 2067.82 862.113 2061.68 876.865C2058.8 883.776 2057.36 891.802 2058.46 894.699C2060.82 900.86 2055.38 912.307 2051.8 908.716ZM2070.66 838.06C2070.53 831.876 2072 825.836 2073.93 824.638C2078.14 822.027 2078.14 832.422 2073.93 842.256C2071.39 848.197 2070.87 847.538 2070.66 838.06ZM2081.5 784.117C2081.5 779.272 2082.3 777.29 2083.27 779.713C2084.24 782.135 2084.24 786.099 2083.27 788.522C2082.3 790.944 2081.5 788.962 2081.5 784.117ZM1731.78 766.499C1730.58 764.561 1731.28 762.976 1733.32 762.976C1735.37 762.976 1737.04 764.561 1737.04 766.499C1737.04 768.437 1736.34 770.023 1735.49 770.023C1734.64 770.023 1732.97 768.437 1731.78 766.499ZM2068.55 720.516C2065.33 715.279 2067.89 713.425 2073.53 716.92C2076.54 718.792 2076.9 720.608 2074.54 722.071C2072.54 723.314 2069.85 722.614 2068.55 720.516ZM2063.4 696.027C2063.4 694.089 2064.98 692.504 2066.91 692.504C2068.84 692.504 2070.42 694.089 2070.42 696.027C2070.42 697.965 2068.84 699.551 2066.91 699.551C2064.98 699.551 2063.4 697.965 2063.4 696.027ZM2059.6 676.648C2059.3 674.71 2059.27 671.871 2059.52 670.339C2059.78 668.807 2058.46 664.689 2056.59 661.188C2054.29 656.877 2054.51 653.513 2057.25 650.76C2062.3 645.692 2068.12 645.404 2065.06 650.375C2063.81 652.398 2064.38 655.97 2066.32 658.313C2068.72 661.216 2068.29 665.377 2064.99 671.373C2062.32 676.212 2059.9 678.586 2059.6 676.648ZM1831.79 535.912C1831.79 535.057 1833.37 533.378 1835.3 532.18C1837.23 530.982 1838.81 531.682 1838.81 533.734C1838.81 535.786 1837.23 537.466 1835.3 537.466C1833.37 537.466 1831.79 536.766 1831.79 535.912ZM750.945 375.38C750.945 369.566 752.524 364.81 754.454 364.81C756.384 364.81 757.963 369.566 757.963 375.38C757.963 381.194 756.384 385.951 754.454 385.951C752.524 385.951 750.945 381.194 750.945 375.38ZM1237.24 361.713C1236.15 359.946 1237.62 357.592 1240.5 356.48C1243.39 355.369 1245.75 355.902 1245.75 357.665C1245.75 362.441 1239.51 365.407 1237.24 361.713ZM891.817 347.519C888.287 345.317 888.12 343.888 891.173 341.994C895.989 339.006 899.604 341.651 897.821 346.859C897.091 348.991 894.614 349.264 891.817 347.519ZM735.927 336.918C728.332 327.842 727.059 324.189 730.178 320.416C735.408 314.088 731.277 297.861 724.435 297.861C720.286 297.861 719.904 296.38 722.702 291.132C724.955 286.904 728.734 285.045 732.867 286.13C736.867 287.18 743.277 284.293 749.217 278.765C760.448 268.314 764.492 267.668 773.962 274.811C780.508 279.75 780.177 280.488 765.44 293.77C751.562 306.277 749.896 309.535 747.894 328.082L745.681 348.575L735.927 336.918ZM648.007 334.272C643.935 330.182 645.448 326.416 652.738 322.498C658.374 319.47 660.258 319.874 662.023 324.492C664.952 332.157 653.712 340 648.007 334.272ZM1465.97 289.933C1461.91 278.856 1471.69 273.406 1485.84 278.859C1493.79 281.922 1492.71 285.556 1482.46 290.249C1471.08 295.454 1467.97 295.394 1465.97 289.933ZM782.528 273.196C779.981 268.418 779.942 266.149 782.405 266.149C784.403 266.149 785.643 264.167 785.16 261.745C784.67 259.283 786.992 257.797 790.424 258.375C793.802 258.945 796.565 257.948 796.565 256.16C796.565 254.372 801.303 250.939 807.093 248.531C812.883 246.123 817.621 243.105 817.621 241.825C817.621 240.545 821.696 239.159 826.677 238.745C831.658 238.331 838.286 236.558 841.406 234.804C844.792 232.902 850.456 232.905 855.455 234.814C860.061 236.572 865.345 237.07 867.198 235.92C869.051 234.771 872.896 235.771 875.742 238.143C879.173 241.002 887.47 241.777 900.353 240.442C915.583 238.864 920.218 239.554 921.776 243.632C922.87 246.493 922.757 249.847 921.526 251.083C918.142 254.481 884.925 258.146 880.787 255.578C878.796 254.343 868.902 254.722 858.799 256.421C848.696 258.12 835.941 259.959 830.454 260.509C824.966 261.059 819.439 262.949 818.171 264.71C816.903 266.47 811.918 268.337 807.093 268.859C802.268 269.38 796.566 272.155 794.424 275.025C789.249 281.955 787.013 281.612 782.528 273.196ZM1452.79 278.69C1452.79 277.835 1454.37 276.156 1456.3 274.958C1458.23 273.76 1459.81 274.46 1459.81 276.512C1459.81 278.564 1458.23 280.243 1456.3 280.243C1454.37 280.243 1452.79 279.544 1452.79 278.69ZM95.8171 272.466C93.8816 269.961 91.3128 265.136 90.1087 261.745C88.8245 258.127 84.3329 255.578 79.2434 255.578C74.4715 255.578 69.5522 253.929 68.3115 251.913C66.8488 249.537 69.2434 249.052 75.1229 250.534C82.6107 252.421 84.19 251.59 84.19 245.766C84.19 233.049 101.424 233.17 101.682 245.888C101.712 247.342 104.2 248.531 107.212 248.531C111.392 248.531 112.43 251.651 111.598 261.715C110.452 275.591 102.445 281.046 95.8171 272.466ZM1422.15 268.171C1413.58 264.19 1406.31 247.845 1409.45 239.623C1411.81 233.45 1415.7 233.112 1425.25 238.246C1433.59 242.728 1438.36 239.673 1432.38 233.673C1425.7 226.962 1427.38 225.668 1443.77 224.93C1459.45 224.223 1469.73 230.403 1465.17 237.806C1461.61 243.59 1450.02 242.106 1445.74 235.318C1443.12 231.15 1442.3 230.864 1443.22 234.437C1443.96 237.344 1448.06 241.483 1452.32 243.636L1460.07 247.549L1450.29 254.109C1444.91 257.717 1439.13 260.252 1437.45 259.741C1435.76 259.231 1435.27 261.126 1436.35 263.952C1438.92 270.683 1431.99 272.743 1422.15 268.171ZM1140.21 246.421C1144.21 238.918 1147.49 230.774 1147.49 228.323C1147.49 225.871 1149.07 223.866 1151 223.866C1152.93 223.866 1154.51 225.452 1154.51 227.39C1154.51 229.327 1156.2 230.913 1158.27 230.913C1164.38 230.913 1172.88 241.279 1170.94 246.359C1169.95 248.94 1164.67 252.033 1159.2 253.231C1153.72 254.429 1145.57 256.456 1141.08 257.735L1132.93 260.062L1140.21 246.421ZM1111.52 232.421C1099.52 225.886 1098.62 212.453 1109.67 204.686C1119.63 197.681 1124.25 197.693 1121.57 204.717C1119.97 208.894 1121.09 209.714 1126.16 208.097C1134.18 205.542 1138.59 211.313 1134.98 219.63C1133.55 222.929 1132.72 228.403 1133.13 231.794C1134.07 239.424 1124.87 239.691 1111.52 232.421ZM1472.64 221.174C1470.62 217.832 1477.59 211.723 1484.38 210.878C1487.27 210.518 1493.57 209.043 1498.38 207.602C1506.86 205.06 1506.96 205.228 1501.72 213.16C1496.44 221.133 1476.01 226.765 1472.64 221.174ZM1090.17 207.422C1085.91 203.143 1087.75 199.389 1093.1 201.45C1095.99 202.566 1098.36 204.894 1098.36 206.625C1098.36 210.319 1093.52 210.79 1090.17 207.422ZM1097.09 193.922C1094.32 186.665 1100.49 174.536 1106.96 174.536C1109.63 174.536 1112.52 172.554 1113.38 170.131C1115.47 164.25 1118.39 167.318 1120.92 178.066C1123.53 189.14 1120.08 194.49 1108.45 197.422C1101.74 199.112 1098.72 198.18 1097.09 193.922ZM1715.99 176.674C1715.99 175.913 1718.35 174.377 1721.25 173.261C1724.14 172.146 1726.51 172.769 1726.51 174.646C1726.51 176.523 1724.14 178.059 1721.25 178.059C1718.35 178.059 1715.99 177.436 1715.99 176.674ZM931.482 128.422C930.185 126.315 930.5 123.21 932.181 121.521C936.332 117.354 945.466 123.42 942.441 128.335C939.375 133.315 934.517 133.354 931.482 128.422ZM950.971 128.729C950.971 126.791 954.223 125.205 958.197 125.205C962.171 125.205 964.447 126.791 963.254 128.729C962.061 130.667 958.809 132.253 956.028 132.253C953.247 132.253 950.971 130.667 950.971 128.729ZM921.168 104.104C919.938 102.107 921.347 101.516 924.47 102.719C930.549 105.062 931.662 107.587 926.614 107.587C924.798 107.587 922.347 106.02 921.168 104.104ZM879.032 89.9694C868.217 87.2062 870.226 86.005 886.694 85.3887C891.873 85.1949 896.742 86.9391 897.514 89.2647C899.052 93.8978 895.01 94.0519 879.032 89.9694ZM872.599 77.0496C871.312 75.7576 870.259 73.5276 870.259 72.094C870.259 68.7064 883.826 72.2614 886.312 76.3004C888.519 79.8849 876.098 80.5634 872.599 77.0496ZM1734.14 63.4723C1728.29 50.5859 1729.01 44.9566 1737.04 40.6391C1744.79 36.4757 1745.05 37.0001 1744.13 54.7335C1743.27 71.0861 1739.21 74.6436 1734.14 63.4723Z" fill="#F7F7F7"/>
</svg>
