<svg width="27" height="22" viewBox="0 0 27 22" fill="none" xmlns="http://www.w3.org/2000/svg">
<path d="M13.0145 0H26.0097C26.5652 0 27 0.439024 27 1C27 1.56098 26.5652 2 26.0097 2H12.9903C12.4348 2 12 1.56098 12 1C12.0242 0.439024 12.4589 0 13.0145 0Z" fill="black"/>
<path d="M1.82609 20H25.2174C26.2174 20 27 20.439 27 21C27 21.561 26.2174 22 25.2174 22H1.78261C0.782608 22 0 21.561 0 21C0.043478 20.439 0.826086 20 1.82609 20Z" fill="black"/>
<path d="M8.35266 10H25.6795C26.4203 10 27 10.439 27 11C27 11.561 26.4203 12 25.6795 12H8.32045C7.57971 12 7 11.561 7 11C7.03221 10.439 7.61191 10 8.35266 10Z" fill="black"/>
</svg>
